<?xml version="1.0" encoding="utf-8"?>
<!-- Generator: Adobe Illustrator 24.1.2, SVG Export Plug-In . SVG Version: 6.00 Build 0)  -->
<svg version="1.1"
	 id="svg6" xmlns:cc="http://creativecommons.org/ns#" xmlns:dc="http://purl.org/dc/elements/1.1/" xmlns:inkscape="http://www.inkscape.org/namespaces/inkscape" xmlns:rdf="http://www.w3.org/1999/02/22-rdf-syntax-ns#" xmlns:sodipodi="http://sodipodi.sourceforge.net/DTD/sodipodi-0.dtd" xmlns:svg="http://www.w3.org/2000/svg"
	 xmlns="http://www.w3.org/2000/svg" xmlns:xlink="http://www.w3.org/1999/xlink" x="0px" y="0px" viewBox="0 0 24 24"
	 style="enable-background:new 0 0 24 24;" xml:space="preserve">
<path d="M18,17c0,0.6,0,1.2,0,1.7h1.3c1,0,1.7-0.8,1.7-1.7V4.7c0-1-0.8-1.7-1.7-1.7H7.1c-1,0-1.7,0.8-1.7,1.7v1.2c0.7,0,1.2,0,1.7,0
	V4.7h12.2V17"/>
<path d="M16.5,5.8H4.3c-1,0-1.7,0.8-1.7,1.7v12.2c0,1,0.8,1.7,1.7,1.7h12.2c1,0,1.7-0.8,1.7-1.7V7.5C18.2,6.6,17.4,5.8,16.5,5.8z
	 M16.5,19.8H4.3V7.5h12.2V19.8z"/>
</svg>
